<svg width="511" height="225" viewBox="0 0 511 225" fill="none" xmlns="http://www.w3.org/2000/svg">
<rect width="510.493" height="224.438" rx="112.219" fill="#5BA238"/>
<path d="M156.576 100.087V87.9553C156.576 71.2046 142.997 57.6254 126.246 57.6254C109.496 57.6254 95.9164 71.2046 95.9164 87.9553V100.087M126.246 127.384V139.516M106.835 166.813H145.657C155.849 166.813 160.945 166.813 164.838 164.829C168.262 163.085 171.046 160.301 172.791 156.877C174.774 152.984 174.774 147.888 174.774 137.696V129.204C174.774 119.012 174.774 113.916 172.791 110.023C171.046 106.599 168.262 103.815 164.838 102.071C160.945 100.087 155.849 100.087 145.657 100.087H106.835C96.6433 100.087 91.5474 100.087 87.6547 102.071C84.2305 103.815 81.4466 106.599 79.7019 110.023C77.7184 113.916 77.7184 119.012 77.7184 129.204V137.696C77.7184 147.888 77.7184 152.984 79.7019 156.877C81.4466 160.301 84.2305 163.085 87.6547 164.829C91.5474 166.813 96.6433 166.813 106.835 166.813Z" stroke="white" stroke-width="14.0274" stroke-linecap="round" stroke-linejoin="round"/>
<path d="M221.529 157.719V65.9035H252.553C259.756 65.9035 265.644 67.2036 270.217 69.8039C274.819 72.3742 278.227 75.8562 280.438 80.2497C282.65 84.6432 283.756 89.5448 283.756 94.9545C283.756 100.364 282.65 105.281 280.438 109.704C278.257 114.128 274.879 117.654 270.306 120.285C265.733 122.885 259.875 124.185 252.732 124.185H230.496V114.322H252.374C257.305 114.322 261.265 113.47 264.254 111.766C267.243 110.063 269.41 107.762 270.755 104.862C272.13 101.933 272.817 98.6308 272.817 94.9545C272.817 91.2783 272.13 87.9907 270.755 85.0915C269.41 82.1924 267.228 79.9209 264.209 78.2771C261.191 76.6034 257.186 75.7665 252.194 75.7665H232.648V157.719H221.529ZM301.666 157.719V65.9035H332.69C339.863 65.9035 345.751 67.1289 350.354 69.5797C354.956 72.0006 358.364 75.3331 360.575 79.5772C362.787 83.8213 363.893 88.6482 363.893 94.0579C363.893 99.4676 362.787 104.265 360.575 108.449C358.364 112.633 354.971 115.921 350.398 118.312C345.826 120.673 339.983 121.854 332.869 121.854H307.763V111.811H332.511C337.412 111.811 341.357 111.094 344.346 109.659C347.365 108.225 349.547 106.192 350.892 103.562C352.266 100.902 352.954 97.7341 352.954 94.0579C352.954 90.3817 352.266 87.1687 350.892 84.4191C349.517 81.6694 347.32 79.5473 344.301 78.0529C341.283 76.5286 337.293 75.7665 332.331 75.7665H312.785V157.719H301.666ZM344.884 116.474L367.479 157.719H354.568L332.331 116.474H344.884ZM459.889 111.811C459.889 121.495 458.141 129.864 454.644 136.917C451.147 143.971 446.35 149.41 440.253 153.236C434.156 157.062 427.192 158.974 419.361 158.974C411.531 158.974 404.567 157.062 398.469 153.236C392.372 149.41 387.575 143.971 384.078 136.917C380.582 129.864 378.833 121.495 378.833 111.811C378.833 102.128 380.582 93.759 384.078 86.7055C387.575 79.6519 392.372 74.2123 398.469 70.3867C404.567 66.561 411.531 64.6482 419.361 64.6482C427.192 64.6482 434.156 66.561 440.253 70.3867C446.35 74.2123 451.147 79.6519 454.644 86.7055C458.141 93.759 459.889 102.128 459.889 111.811ZM449.13 111.811C449.13 103.861 447.799 97.1513 445.139 91.6818C442.509 86.2123 438.938 82.0729 434.425 79.2634C429.941 76.4539 424.92 75.0492 419.361 75.0492C413.802 75.0492 408.766 76.4539 404.253 79.2634C399.77 82.0729 396.198 86.2123 393.538 91.6818C390.908 97.1513 389.593 103.861 389.593 111.811C389.593 119.762 390.908 126.471 393.538 131.941C396.198 137.41 399.77 141.55 404.253 144.359C408.766 147.169 413.802 148.573 419.361 148.573C424.92 148.573 429.941 147.169 434.425 144.359C438.938 141.55 442.509 137.41 445.139 131.941C447.799 126.471 449.13 119.762 449.13 111.811Z" fill="white"/>
</svg>
