<svg width="20" height="18" viewBox="0 0 20 18" fill="none" xmlns="http://www.w3.org/2000/svg">
<g id="Icon">
<path d="M1.25215 5.75412L5.21188 1.25354C5.29245 1.16035 5.33274 1.11375 5.38212 1.08025C5.42588 1.05057 5.4747 1.02852 5.52637 1.01512C5.58469 1 5.64761 1 5.77347 1H8.36364H10H11.6364H14.2265C14.3524 1 14.4153 1 14.4736 1.01512C14.5253 1.02852 14.5741 1.05057 14.6179 1.08025C14.6673 1.11375 14.7075 1.16034 14.7881 1.25353L14.7881 1.25354L18.7479 5.75412L18.7479 5.75414C18.8866 5.91461 18.956 5.99485 18.9825 6.08441C18.9939 6.12296 18.9997 6.16264 19 6.20234C19.0003 6.24397 18.9944 6.28563 18.9825 6.32605C18.956 6.41561 18.8866 6.49585 18.7479 6.65633L10.5616 16.5979C10.3687 16.821 10.2723 16.9326 10.1568 16.9732C10.1062 16.9911 10.0531 17 10 17C9.9469 17 9.8938 16.9911 9.84315 16.9732C9.7277 16.9326 9.63127 16.821 9.43841 16.5979L9.43841 16.5979L1.25215 6.65633C1.11341 6.49585 1.04404 6.41561 1.01753 6.32605C1.00557 6.28563 0.999727 6.24397 1.00001 6.20234C1.00028 6.16264 1.00612 6.12296 1.01753 6.08441C1.04404 5.99484 1.11341 5.9146 1.25215 5.75412Z" fill="#D3E3EF"/>
<path d="M8.36364 1L6.31818 6.20234L10 17M10 17C9.9469 17 9.8938 16.9911 9.84315 16.9732C9.7277 16.9326 9.63127 16.821 9.43841 16.5979L1.25215 6.65633C1.11341 6.49585 1.04404 6.41561 1.01753 6.32605C1.00557 6.28563 0.999727 6.24397 1.00001 6.20234M10 17L13.6818 6.20234M10 17C10.0531 17 10.1062 16.9911 10.1568 16.9732C10.2723 16.9326 10.3687 16.821 10.5616 16.5979L18.7479 6.65633C18.8866 6.49585 18.956 6.41561 18.9825 6.32605C18.9944 6.28563 19.0003 6.24397 19 6.20234M1.00001 6.20234H10H13.6818M1.00001 6.20234C1.00028 6.16264 1.00612 6.12296 1.01753 6.08441C1.04404 5.99484 1.11341 5.9146 1.25215 5.75412L5.21188 1.25354C5.29245 1.16035 5.33274 1.11375 5.38212 1.08025C5.42588 1.05057 5.4747 1.02852 5.52637 1.01512C5.58469 1 5.64761 1 5.77347 1C7.45074 1 8.69108 1 10 1H11.6364M11.6364 1L13.6818 6.20234M11.6364 1H14.2265C14.3524 1 14.4153 1 14.4736 1.01512C14.5253 1.02852 14.5741 1.05057 14.6179 1.08025C14.6673 1.11375 14.7075 1.16035 14.7881 1.25354L18.7479 5.75412C18.8866 5.9146 18.956 5.99484 18.9825 6.08441C18.9939 6.12296 18.9997 6.16264 19 6.20234M13.6818 6.20234H19" stroke="#2271B1" stroke-linecap="round" stroke-linejoin="round"/>
</g>
</svg>
